<svg width="40" height="40" viewBox="0 0 40 40" fill="none" xmlns="http://www.w3.org/2000/svg">
<path d="M0 8C0 3.58172 3.58172 0 8 0H32C36.4183 0 40 3.58172 40 8V32C40 36.4183 36.4183 40 32 40H8C3.58172 40 0 36.4183 0 32V8Z" fill="white"/>
<path d="M17.25 17.05C19.03 17.7 20.97 17.7 22.75 17.05" stroke="#5F5E73" stroke-width="1.5" stroke-linecap="round" stroke-linejoin="round"/>
<path d="M24.8199 10H15.1799C13.0499 10 11.3199 11.74 11.3199 13.86V27.95C11.3199 29.75 12.6099 30.51 14.1899 29.64L19.0699 26.93C19.5899 26.64 20.4299 26.64 20.9399 26.93L25.8199 29.64C27.3999 30.52 28.6899 29.76 28.6899 27.95V13.86C28.6799 11.74 26.9499 10 24.8199 10Z" stroke="#5F5E73" stroke-width="1.5" stroke-linecap="round" stroke-linejoin="round"/>
<path d="M24.8199 10H15.1799C13.0499 10 11.3199 11.74 11.3199 13.86V27.95C11.3199 29.75 12.6099 30.51 14.1899 29.64L19.0699 26.93C19.5899 26.64 20.4299 26.64 20.9399 26.93L25.8199 29.64C27.3999 30.52 28.6899 29.76 28.6899 27.95V13.86C28.6799 11.74 26.9499 10 24.8199 10Z" stroke="#5F5E73" stroke-width="1.5" stroke-linecap="round" stroke-linejoin="round"/>
</svg>
