<svg width="16" height="17" viewBox="0 0 16 17" fill="none" xmlns="http://www.w3.org/2000/svg">
<path d="M5.3335 8.10005C5.3335 8.61338 5.7335 9.03338 6.22016 9.03338H7.22016C7.64683 9.03338 7.9935 8.66672 7.9935 8.22005C7.9935 7.73338 7.78016 7.56005 7.46683 7.44672L5.86683 6.88672C5.54683 6.77338 5.3335 6.60005 5.3335 6.11338C5.3335 5.66672 5.68016 5.30005 6.10683 5.30005H7.10683C7.60016 5.30672 8.00016 5.72005 8.00016 6.23338" stroke="#5F5E73" stroke-width="1.5" stroke-linecap="round" stroke-linejoin="round"/>
<path d="M6.6665 9.06665V9.55998" stroke="#5F5E73" stroke-width="1.5" stroke-linecap="round" stroke-linejoin="round"/>
<path d="M6.6665 4.77332V5.29332" stroke="#5F5E73" stroke-width="1.5" stroke-linecap="round" stroke-linejoin="round"/>
<path d="M6.66016 12.4867C9.602 12.4867 11.9868 10.1019 11.9868 7.16004C11.9868 4.2182 9.602 1.83337 6.66016 1.83337C3.71833 1.83337 1.3335 4.2182 1.3335 7.16004C1.3335 10.1019 3.71833 12.4867 6.66016 12.4867Z" stroke="#5F5E73" stroke-width="1.5" stroke-linecap="round" stroke-linejoin="round"/>
<path d="M8.65332 13.7533C9.25332 14.6 10.2333 15.1533 11.3533 15.1533C13.1733 15.1533 14.6533 13.6733 14.6533 11.8533C14.6533 10.7466 14.1067 9.76663 13.2733 9.16663" stroke="#5F5E73" stroke-width="1.5" stroke-linecap="round" stroke-linejoin="round"/>
</svg>
