<svg width="90" height="90" viewBox="0 0 90 90" fill="none" xmlns="http://www.w3.org/2000/svg">
<path d="M20.3906 51.3281V59.0625C20.3906 72.6328 31.4297 83.6719 45 83.6719C58.5703 83.6719 69.6094 72.6328 69.6094 59.0625V51.3281" fill="white"/>
<path d="M70.3125 43.5938H19.6875C17.3672 43.5938 15.4688 45.4922 15.4688 47.8125C15.4688 50.1328 17.3672 52.0312 19.6875 52.0312H70.3125C72.6328 52.0312 74.5312 50.1328 74.5312 47.8125C74.5312 45.4922 72.6328 43.5938 70.3125 43.5938Z" fill="white"/>
<path d="M45 85.7812C30.2344 85.7812 18.2812 73.8281 18.2812 59.0625C18.2812 57.8672 19.1953 56.9531 20.3906 56.9531C21.5859 56.9531 22.5 57.8672 22.5 59.0625C22.5 71.4375 32.625 81.5625 45 81.5625C47.8828 81.5625 50.7656 81 53.4375 79.9453C54.4922 79.5234 55.7578 80.0156 56.1797 81.1406C56.6016 82.1953 56.1094 83.4609 54.9844 83.8828C51.8203 85.1484 48.4453 85.7812 45 85.7812ZM70.3125 54.1406H30.2344C29.0391 54.1406 28.125 53.2266 28.125 52.0312C28.125 50.8359 29.0391 49.9219 30.2344 49.9219H70.3125C71.5078 49.9219 72.4219 49.0078 72.4219 47.8125C72.4219 46.6172 71.5078 45.7031 70.3125 45.7031H19.6875C18.4922 45.7031 17.5781 46.6172 17.5781 47.8125C17.5781 49.0078 18.4922 49.9219 19.6875 49.9219C20.8828 49.9219 21.7969 50.8359 21.7969 52.0312C21.7969 53.2266 20.8828 54.1406 19.6875 54.1406C16.1719 54.1406 13.3594 51.3281 13.3594 47.8125C13.3594 44.2969 16.1719 41.4844 19.6875 41.4844H70.3125C73.8281 41.4844 76.6406 44.2969 76.6406 47.8125C76.6406 51.3281 73.8281 54.1406 70.3125 54.1406Z" fill="#444B54"/>
<path d="M27.4219 45.7031C26.2266 45.7031 25.3125 44.7891 25.3125 43.5938V26.0156C25.3125 15.1875 34.1719 6.32812 45 6.32812C55.8281 6.32812 64.6875 15.1875 64.6875 26.0156C64.6875 27.2109 63.7734 28.125 62.5781 28.125C61.3828 28.125 60.4688 27.2109 60.4688 26.0156C60.4688 17.5078 53.5078 10.5469 45 10.5469C36.4922 10.5469 29.5312 17.5078 29.5312 26.0156V43.5938C29.5312 44.7891 28.6172 45.7031 27.4219 45.7031ZM45 73.125C43.8047 73.125 42.8906 72.2109 42.8906 71.0156V66.0938C42.8906 64.8984 43.8047 63.9844 45 63.9844C46.1953 63.9844 47.1094 64.8984 47.1094 66.0938V71.0156C47.1094 72.2109 46.1953 73.125 45 73.125Z" fill="#444B54"/>
<path d="M74.5312 85.7812C82.2978 85.7812 88.5938 79.4853 88.5938 71.7188C88.5938 63.9522 82.2978 57.6562 74.5312 57.6562C66.7647 57.6562 60.4688 63.9522 60.4688 71.7188C60.4688 79.4853 66.7647 85.7812 74.5312 85.7812Z" fill="#1FD4AF"/>
<path d="M74.5313 77.3437C74.5313 77.3437 74.461 77.3437 74.5313 77.3437C73.8282 77.3437 73.2657 76.9922 72.8438 76.5L67.922 70.1718C67.2188 69.2578 67.3595 67.9218 68.2735 67.2187C69.1876 66.5156 70.5235 66.6562 71.2267 67.5703L74.6017 71.9297L84.2345 61.1719C85.0079 60.3281 86.3438 60.1875 87.1876 61.0312C88.0313 61.8047 88.1017 63.1406 87.3282 63.9844L76.0782 76.6406C75.7267 77.0625 75.1642 77.3437 74.5313 77.3437Z" fill="white"/>
</svg>
