<svg width="15" height="19" viewBox="0 0 15 19" fill="none" xmlns="http://www.w3.org/2000/svg">
<path d="M11.39 9.432C12.4647 9.744 13.288 10.29 13.86 11.07C14.4493 11.85 14.744 12.812 14.744 13.956C14.744 15.5333 14.1807 16.7727 13.054 17.674C11.9447 18.558 10.3933 19 8.4 19H0.00200018V0.488H8.14C10.0467 0.488 11.546 0.921333 12.638 1.788C13.73 2.63733 14.276 3.816 14.276 5.324C14.276 6.29467 14.016 7.144 13.496 7.872C12.9933 8.58267 12.2913 9.10267 11.39 9.432ZM3.278 8.288H7.594C9.91667 8.288 11.078 7.42133 11.078 5.688C11.078 4.82133 10.792 4.17133 10.22 3.738C9.648 3.30467 8.77267 3.088 7.594 3.088H3.278V8.288ZM8.036 16.4C9.24933 16.4 10.1333 16.1833 10.688 15.75C11.26 15.3167 11.546 14.632 11.546 13.696C11.546 12.7427 11.26 12.0407 10.688 11.59C10.1333 11.1393 9.24933 10.914 8.036 10.914H3.278V16.4H8.036Z" fill="white"/>
</svg>
