<svg width="125" height="28" viewBox="0 0 125 28" fill="none" xmlns="http://www.w3.org/2000/svg">
<path fill-rule="evenodd" clip-rule="evenodd" d="M20.2062 11.604C20.2062 11.6078 20.2093 11.6109 20.2132 11.6109H20.773C21.6466 11.6109 22.3592 12.5019 22.3592 13.6021V25.0617C22.3592 26.1607 21.6466 27.06 20.773 27.06H1.58616C0.712542 27.06 0 26.1607 0 25.0617V13.6021C0 12.5018 0.712542 11.6109 1.5861 11.6109C1.89918 11.6109 2.15299 11.3571 2.15299 11.044V8.98894C2.15299 4.13937 6.04681 0.0882502 10.9138 0.00177209C11.0467 -0.000590698 11.3125 -0.000590698 11.4454 0.00177209C15.9083 0.0810714 19.553 3.4941 20.1274 7.79952C20.1926 8.2883 19.7931 8.69774 19.3 8.69774H18.0881C17.6403 8.69774 17.2714 8.35652 17.1652 7.9215C17.0686 7.52567 16.9486 7.20668 16.8621 6.97694L16.8618 6.97612L16.8612 6.97455C16.7099 6.5737 16.3568 5.63816 15.5045 4.73499C14.6043 3.78093 13.5328 3.17297 12.3195 2.93084C11.5668 2.78155 10.7921 2.78155 10.0394 2.93084C8.82773 3.17335 7.75593 3.78008 6.85436 4.73457C6.00381 5.6348 5.64846 6.57448 5.49712 6.97569L5.4966 6.97707C5.30442 7.4867 4.94734 8.43363 5.048 9.67884C5.15905 11.0501 5.75623 12.0519 5.95284 12.3812C6.07623 12.5847 6.323 12.9735 6.81858 13.6715C6.92232 13.8198 7.01529 13.9454 7.09726 14.0561L7.09728 14.0561L7.14266 14.1175L7.14394 14.1192C7.37344 14.4306 7.5003 14.6027 7.63085 14.8739C7.80933 15.2445 7.94074 15.636 8.02198 16.0392C8.06104 16.2305 8.22931 16.3679 8.42464 16.3681H13.9346C14.1327 16.3678 14.3025 16.2265 14.3385 16.0318C14.4117 15.6317 14.5418 15.2442 14.7247 14.8809C14.8675 14.5987 14.9993 14.418 15.238 14.0905L15.2397 14.0883C15.3264 13.9695 15.4252 13.8339 15.5428 13.6686L15.5498 13.6587L15.5498 13.6587C15.8878 13.1827 16.1802 12.771 16.4065 12.3791C16.4475 12.3094 16.5014 12.2179 16.5625 12.1061C16.7283 11.8031 17.0372 11.597 17.3826 11.597H20.1992C20.2031 11.597 20.2062 11.6001 20.2062 11.604ZM8.7149 17.2063H13.6446C13.8716 17.2063 14.0559 17.4826 14.0559 17.8229C14.0559 18.1633 13.8716 18.4395 13.6446 18.4395H8.7149C8.48745 18.4395 8.3036 18.1633 8.3036 17.8229C8.3036 17.4826 8.48787 17.2063 8.7149 17.2063ZM13.6446 19.2614H8.7149C8.48787 19.2614 8.3036 19.5377 8.3036 19.878C8.3036 20.2184 8.48745 20.4946 8.7149 20.4946H13.6446C13.8716 20.4946 14.0559 20.2184 14.0559 19.878C14.0559 19.5377 13.8716 19.2614 13.6446 19.2614ZM9.9454 21.3169H12.4131C12.6389 21.3169 12.8244 21.5931 12.8244 21.9335C12.8244 22.2739 12.6401 22.5501 12.4131 22.5501H9.9454C9.71795 22.5501 9.5341 22.2739 9.5341 21.9335C9.5341 21.5931 9.71837 21.3169 9.9454 21.3169Z" fill="#2DC86D"/>
<path d="M46.6012 8.78009C46.6101 8.78006 46.6149 8.79076 46.6087 8.7972C46.6025 8.80365 46.6072 8.81436 46.6162 8.81439C48.509 8.81953 50.0112 9.43685 51.1228 10.6664C52.239 11.901 52.7971 13.593 52.7971 15.7422V25.4326C52.7971 25.9147 52.4063 26.3055 51.9242 26.3055H49.5006C49.0185 26.3055 48.6277 25.9147 48.6277 25.4326V16.531C48.6277 15.2735 48.3104 14.2903 47.6757 13.5815C47.041 12.8728 46.1546 12.5184 45.0165 12.5184C43.7909 12.5184 42.806 12.9185 42.0618 13.7187C41.3396 14.4961 40.9456 15.5822 40.88 16.9769V25.4326C40.88 25.9147 40.4892 26.3055 40.0071 26.3055H37.6492C37.1671 26.3055 36.7763 25.9147 36.7763 25.4326V2.48503C36.7763 2.00294 37.1671 1.61212 37.6492 1.61212H40.0071C40.4892 1.61212 40.88 2.00294 40.88 2.48503V12.4988C40.88 12.5096 40.8888 12.5184 40.8996 12.5184C40.9076 12.5184 40.9148 12.5134 40.9178 12.506C41.923 10.0291 43.8175 8.78716 46.6012 8.78009Z" fill="white"/>
<path d="M61.2481 5.5562C60.6572 6.10494 59.913 6.37931 59.0157 6.37931C58.1184 6.37931 57.3633 6.10494 56.7505 5.5562C56.1595 4.9846 55.8641 4.27581 55.8641 3.42983C55.8641 2.58386 56.1595 1.8865 56.7505 1.33775C57.3633 0.766149 58.1184 0.480347 59.0157 0.480347C59.913 0.480347 60.6572 0.766149 61.2481 1.33775C61.8609 1.8865 62.1673 2.58386 62.1673 3.42983C62.1673 4.27581 61.8609 4.9846 61.2481 5.5562ZM57.8203 26.2712C57.3382 26.2712 56.9474 25.8804 56.9474 25.3983V9.99592C56.9474 9.51383 57.3382 9.12302 57.8203 9.12302H60.1782C60.6603 9.12302 61.0511 9.51383 61.0511 9.99592V25.3983C61.0511 25.8804 60.6603 26.2712 60.1782 26.2712H57.8203Z" fill="white"/>
<path d="M78.5369 2.44347C78.5369 1.96422 78.9233 1.5746 79.4025 1.57059L81.7604 1.55089C82.2453 1.54684 82.6406 1.93882 82.6406 2.42376V25.364C82.6406 25.8461 82.2498 26.2369 81.7677 26.2369H79.4098C78.9277 26.2369 78.5369 25.8461 78.5369 25.364V22.8816C78.5369 22.8595 78.519 22.8415 78.4969 22.8415C78.4813 22.8415 78.4671 22.8507 78.4605 22.8649C77.9136 24.0426 77.1184 24.9608 76.0747 25.6196C75.0461 26.2597 73.8532 26.5798 72.4963 26.5798C70.1982 26.5798 68.2722 25.7339 66.7183 24.0419C65.1863 22.35 64.4202 20.235 64.4202 17.6971C64.4202 15.1363 65.1863 13.0099 66.7183 11.318C68.2722 9.60317 70.1982 8.74576 72.4963 8.74576C73.8532 8.74576 75.0461 9.07729 76.0747 9.74035C77.1184 10.3991 77.9136 11.3173 78.4605 12.495C78.4671 12.5092 78.4813 12.5184 78.4969 12.5184C78.519 12.5184 78.5369 12.5004 78.5369 12.4783V2.44347ZM73.6543 22.9101C73.6695 22.9102 73.6841 22.9039 73.6946 22.893C73.7051 22.882 73.7197 22.8759 73.7348 22.8758C75.1685 22.8707 76.3424 22.402 77.2566 21.4697C78.1977 20.5094 78.6901 19.2862 78.7339 17.8V17.5256C78.6901 16.0394 78.1977 14.8276 77.2566 13.8902C76.3155 12.9299 75.1227 12.4498 73.6782 12.4498C72.2118 12.4498 71.008 12.9413 70.0669 13.9245C69.1258 14.9077 68.6552 16.1538 68.6552 17.6628C68.6552 19.1947 69.1258 20.4522 70.0669 21.4354C71.0029 22.4132 72.1987 22.9048 73.6543 22.9101Z" fill="white"/>
<path d="M99.3853 20.0009C99.505 19.5612 99.8725 19.2061 100.328 19.2061H102.764C103.266 19.2061 103.67 19.6311 103.587 20.1269C103.292 21.9052 102.451 23.3816 101.064 24.5564C99.4661 25.9054 97.4745 26.5798 95.0889 26.5798C92.4406 26.5798 90.2739 25.7453 88.5886 24.0762C86.9253 22.3843 86.0936 20.2236 86.0936 17.5942C86.0936 15.0106 86.9143 12.8956 88.5558 11.2494C90.2192 9.5803 92.3531 8.74576 94.9576 8.74576C97.562 8.74576 99.6303 9.54601 101.162 11.1465C102.549 12.5748 103.282 14.4309 103.362 16.7149C103.378 17.1856 102.988 17.5599 102.517 17.5599H90.9504C90.4638 17.5599 90.065 17.9591 90.122 18.4423C90.2708 19.7031 90.7118 20.7351 91.4448 21.5383C92.3421 22.4986 93.524 22.9787 94.9904 22.9787C96.2379 22.9787 97.2775 22.6358 98.1092 21.9498C98.7513 21.4166 99.1767 20.767 99.3853 20.0009ZM94.8919 11.9353C93.3798 11.9353 92.206 12.4085 91.3703 13.3548C90.9464 13.8348 91.3613 14.5075 92.0016 14.5075H97.7115C98.3276 14.5075 98.748 13.8769 98.3663 13.3933C97.5989 12.4213 96.4408 11.9353 94.8919 11.9353Z" fill="white"/>
<path d="M120.151 9.98866C120.151 9.50941 120.537 9.11979 121.016 9.11579L123.374 9.09608C123.859 9.09203 124.255 9.48401 124.255 9.96895V25.364C124.255 25.8461 123.864 26.2369 123.382 26.2369H121.024C120.542 26.2369 120.151 25.8461 120.151 25.364V22.8816C120.151 22.8595 120.133 22.8415 120.111 22.8415C120.095 22.8415 120.081 22.8507 120.074 22.8649C119.528 24.0426 118.732 24.9608 117.689 25.6196C116.66 26.2597 115.467 26.5798 114.11 26.5798C111.812 26.5798 109.886 25.7339 108.332 24.0419C106.8 22.35 106.034 20.235 106.034 17.6971C106.034 15.1363 106.8 13.0099 108.332 11.318C109.886 9.60317 111.812 8.74576 114.11 8.74576C115.467 8.74576 116.66 9.07729 117.689 9.74035C118.732 10.3991 119.528 11.3173 120.074 12.495C120.081 12.5092 120.095 12.5184 120.111 12.5184C120.133 12.5184 120.151 12.5004 120.151 12.4783V9.98866ZM115.275 22.9101C115.284 22.9101 115.292 22.9025 115.292 22.893C115.292 22.8835 115.3 22.8758 115.309 22.8758C116.768 22.872 117.966 22.3804 118.903 21.4011C119.844 20.4179 120.315 19.1718 120.315 17.6628C120.315 16.1538 119.844 14.9077 118.903 13.9245C117.962 12.9413 116.758 12.4498 115.292 12.4498C113.826 12.4498 112.622 12.9413 111.681 13.9245C110.74 14.9077 110.269 16.1538 110.269 17.6628C110.269 19.1947 110.74 20.4522 111.681 21.4354C112.618 22.4147 113.816 22.9063 115.275 22.9101Z" fill="white"/>
</svg>
