<svg width="71" height="16" viewBox="0 0 71 16" fill="none" xmlns="http://www.w3.org/2000/svg">
<path fill-rule="evenodd" clip-rule="evenodd" d="M11.4484 6.86119C11.4484 6.86346 11.4502 6.86531 11.4525 6.86531H11.7695C12.2645 6.86531 12.6682 7.39211 12.6682 8.04265V14.8185C12.6682 15.4683 12.2645 16 11.7695 16H0.89868C0.40371 16 0 15.4683 0 14.8185V8.04265C0 7.39207 0.40371 6.86531 0.898646 6.86531C1.07603 6.86531 1.21983 6.72151 1.21983 6.54412V5.31498C1.21983 2.44753 3.42598 0.0521806 6.18352 0.0010478C6.25883 -0.000349267 6.40938 -0.000349267 6.48473 0.0010478C8.90041 0.0458427 10.893 1.88974 11.3498 4.27404C11.4399 4.74411 11.0497 5.14279 10.5711 5.14279C10.1347 5.14279 9.77626 4.80739 9.64511 4.39115C9.61255 4.28783 9.58044 4.19881 9.55392 4.12526L9.55374 4.12478L9.5534 4.12384C9.46769 3.88683 9.26765 3.33367 8.78476 2.79964C8.27468 2.23553 7.66764 1.87605 6.98021 1.73288C6.55373 1.64461 6.1148 1.64461 5.68832 1.73288C5.00182 1.87628 4.39457 2.23502 3.88376 2.79939C3.40186 3.33168 3.20053 3.8873 3.11478 4.12453L3.11449 4.12534C3.0056 4.42668 2.80328 4.98658 2.86032 5.72284C2.92323 6.53367 3.26159 7.12599 3.37298 7.32068C3.44289 7.44099 3.5827 7.67093 3.86349 8.08363C3.92227 8.17131 3.97496 8.24558 4.02141 8.31107L4.04711 8.34733L4.04783 8.34836C4.17786 8.53244 4.24973 8.63419 4.3237 8.79456C4.42483 9.01372 4.49928 9.2452 4.54531 9.48361C4.56744 9.5967 4.66277 9.67796 4.77345 9.67805H7.89527C8.0075 9.67789 8.10369 9.59433 8.12411 9.47924C8.1656 9.24267 8.23928 9.01351 8.34292 8.79868C8.42383 8.63183 8.49848 8.525 8.63376 8.3314L8.63468 8.33009C8.68385 8.25984 8.73978 8.17963 8.80641 8.08192L8.8104 8.07606C9.00189 7.79465 9.16756 7.5512 9.29576 7.31947C9.44993 7.04639 9.73056 6.85707 10.0442 6.85707H11.4443C11.4465 6.85707 11.4484 6.85892 11.4484 6.86119ZM4.93803 10.1737H7.73108C7.85971 10.1737 7.96411 10.337 7.96411 10.5383C7.96411 10.7395 7.85971 10.9029 7.73108 10.9029H4.93803C4.80916 10.9029 4.705 10.7395 4.705 10.5383C4.705 10.337 4.8094 10.1737 4.93803 10.1737ZM7.73108 11.3889H4.93803C4.8094 11.3889 4.705 11.5522 4.705 11.7535C4.705 11.9547 4.80916 12.118 4.93803 12.118H7.73108C7.85971 12.118 7.96411 11.9547 7.96411 11.7535C7.96411 11.5522 7.85971 11.3889 7.73108 11.3889ZM5.63496 12.6042H7.03311C7.16104 12.6042 7.26614 12.7675 7.26614 12.9688C7.26614 13.17 7.16174 13.3333 7.03311 13.3333H5.63496C5.50609 13.3333 5.40192 13.17 5.40192 12.9688C5.40192 12.7675 5.50633 12.6042 5.63496 12.6042Z" fill="#2DC86D"/>
<path d="M26.4032 5.1914C26.4085 5.19139 26.4114 5.19764 26.4078 5.20153C26.4042 5.20541 26.4071 5.21167 26.4123 5.21169C27.4846 5.2148 28.3357 5.57981 28.9654 6.30672C29.5978 7.03675 29.914 8.03717 29.914 9.30797V14.5538C29.914 15.1061 29.4663 15.5538 28.914 15.5538H28.5517C27.9994 15.5538 27.5517 15.1061 27.5517 14.5538V9.77438C27.5517 9.03082 27.3719 8.4495 27.0123 8.03041C26.6527 7.61131 26.1505 7.40177 25.5057 7.40177C24.8113 7.40177 24.2533 7.63835 23.8316 8.11152C23.4224 8.57117 23.1992 9.21333 23.162 10.038V14.5538C23.162 15.1061 22.7143 15.5538 22.162 15.5538H21.837C21.2847 15.5538 20.837 15.1061 20.837 14.5538V1.95313C20.837 1.40085 21.2847 0.953133 21.837 0.953133H22.162C22.7143 0.953133 23.162 1.40085 23.162 1.95313V7.39073C23.162 7.39682 23.167 7.40177 23.1731 7.40177C23.1776 7.40177 23.1817 7.3989 23.1834 7.39465C23.7529 5.9301 24.8261 5.19568 26.4032 5.1914Z" fill="#0F0E2D"/>
<path d="M34.7021 3.28519C34.3673 3.60965 33.9457 3.77188 33.4373 3.77188C32.9289 3.77188 32.5011 3.60965 32.1539 3.28519C31.8191 2.94721 31.6517 2.52811 31.6517 2.02791C31.6517 1.5277 31.8191 1.11536 32.1539 0.790903C32.5011 0.452925 32.9289 0.283936 33.4373 0.283936C33.9457 0.283936 34.3673 0.452925 34.7021 0.790903C35.0494 1.11536 35.223 1.5277 35.223 2.02791C35.223 2.52811 35.0494 2.94721 34.7021 3.28519ZM33.2655 15.5335C32.7132 15.5335 32.2655 15.0858 32.2655 14.5335V6.39417C32.2655 5.84189 32.7132 5.39417 33.2655 5.39417H33.5905C34.1428 5.39417 34.5905 5.84189 34.5905 6.39417V14.5335C34.5905 15.0858 34.1428 15.5335 33.5905 15.5335H33.2655Z" fill="#0F0E2D"/>
<path d="M44.4976 1.92417C44.4976 1.37529 44.94 0.928996 45.4889 0.924209L45.8139 0.921374C46.3696 0.916528 46.8227 1.36564 46.8227 1.92134V14.5133C46.8227 15.0655 46.3749 15.5133 45.8227 15.5133H45.4976C44.9453 15.5133 44.4976 15.0655 44.4976 14.5133V13.5282C44.4976 13.5157 44.4875 13.5057 44.4751 13.5057C44.4662 13.5057 44.4581 13.511 44.4544 13.5191C44.1446 14.2156 43.694 14.7587 43.1026 15.1482C42.5198 15.5268 41.8439 15.716 41.0751 15.716C39.7731 15.716 38.6819 15.2158 37.8014 14.2154C36.9334 13.215 36.4994 11.9645 36.4994 10.4639C36.4994 8.94971 36.9334 7.69243 37.8014 6.69201C38.6819 5.67807 39.7731 5.17111 41.0751 5.17111C41.8439 5.17111 42.5198 5.36713 43.1026 5.75919C43.694 6.14874 44.1446 6.69178 44.4544 7.38831C44.4581 7.39646 44.4662 7.40177 44.4751 7.40177C44.4875 7.40177 44.4976 7.39168 44.4976 7.37925V1.92417ZM41.7309 13.5462C41.7397 13.5462 41.7481 13.5425 41.754 13.5361C41.76 13.5296 41.7684 13.5259 41.7772 13.5259C42.5893 13.5228 43.2543 13.2457 43.7722 12.6945C44.3054 12.1267 44.5844 11.4034 44.6092 10.5247V10.3625C44.5844 9.48371 44.3054 8.7672 43.7722 8.21291C43.239 7.64511 42.5632 7.36121 41.7447 7.36121C40.9139 7.36121 40.2319 7.65187 39.6987 8.23319C39.1655 8.81452 38.8989 9.55131 38.8989 10.4436C38.8989 11.3494 39.1655 12.0929 39.6987 12.6742C40.2289 13.2523 40.9064 13.543 41.7309 13.5462Z" fill="#0F0E2D"/>
<path d="M56.1543 12.2487C56.3833 11.7782 56.7912 11.3561 57.3145 11.3561H57.6899C58.2647 11.3561 58.734 11.8454 58.5842 12.4003C58.3597 13.2318 57.9186 13.9382 57.2608 14.5196C56.3556 15.3172 55.2272 15.716 53.8756 15.716C52.3751 15.716 51.1475 15.2226 50.1927 14.2357C49.2503 13.2353 48.779 11.9577 48.779 10.403C48.779 8.87535 49.2441 7.62483 50.1741 6.65145C51.1165 5.66456 52.3255 5.17111 53.8012 5.17111C55.2768 5.17111 56.4486 5.64428 57.3166 6.59062C58.0094 7.33527 58.4143 8.27663 58.5312 9.41471C58.5864 9.95196 58.1338 10.3827 57.5937 10.3827H52.0423C51.4851 10.3827 51.0176 10.8443 51.1435 11.3871C51.2666 11.9177 51.489 12.367 51.8109 12.7351C52.3193 13.3029 52.9889 13.5868 53.8198 13.5868C54.5266 13.5868 55.1156 13.384 55.5868 12.9784C55.8315 12.7663 56.0207 12.5231 56.1543 12.2487ZM53.764 7.05703C53.2054 7.05703 52.7283 7.17596 52.3326 7.41383C51.7099 7.78819 52.1695 8.57793 52.896 8.57793H54.6404C55.3402 8.57793 55.8117 7.829 55.2281 7.44294C54.8392 7.18567 54.3511 7.05703 53.764 7.05703Z" fill="#0F0E2D"/>
<path d="M68.0751 6.38549C68.0751 5.83661 68.5175 5.39031 69.0664 5.38553L69.3914 5.38269C69.9471 5.37785 70.4002 5.82696 70.4002 6.38265V14.5133C70.4002 15.0655 69.9524 15.5133 69.4002 15.5133H69.0751C68.5228 15.5133 68.0751 15.0655 68.0751 14.5133V13.5282C68.0751 13.5157 68.065 13.5057 68.0526 13.5057C68.0437 13.5057 68.0356 13.511 68.0319 13.5191C67.7221 14.2156 67.2715 14.7587 66.6801 15.1482C66.0973 15.5268 65.4214 15.716 64.6526 15.716C63.3506 15.716 62.2594 15.2158 61.379 14.2154C60.5109 13.215 60.0769 11.9645 60.0769 10.4639C60.0769 8.94971 60.5109 7.69243 61.379 6.69201C62.2594 5.67807 63.3506 5.17111 64.6526 5.17111C65.4214 5.17111 66.0973 5.36713 66.6801 5.75919C67.2715 6.14874 67.7221 6.69178 68.0319 7.3883C68.0356 7.39646 68.0437 7.40177 68.0526 7.40177C68.065 7.40177 68.0751 7.39168 68.0751 7.37924V6.38549ZM65.3121 13.5462C65.3177 13.5462 65.3222 13.5417 65.3222 13.5361C65.3222 13.5305 65.3268 13.5259 65.3324 13.5259C66.1586 13.5236 66.8373 13.2329 67.3683 12.654C67.9015 12.0726 68.1681 11.3358 68.1681 10.4436C68.1681 9.55131 67.9015 8.81452 67.3683 8.23319C66.8351 7.65187 66.1531 7.36121 65.3222 7.36121C64.4914 7.36121 63.8094 7.65187 63.2762 8.23319C62.743 8.81452 62.4764 9.55131 62.4764 10.4436C62.4764 11.3494 62.743 12.0929 63.2762 12.6742C63.8072 13.2532 64.4858 13.5438 65.3121 13.5462Z" fill="#0F0E2D"/>
</svg>
