<svg width="26" height="31" viewBox="0 0 26 31" fill="none" xmlns="http://www.w3.org/2000/svg">
<path fill-rule="evenodd" clip-rule="evenodd" d="M23.1483 13.2935C23.1483 13.298 23.1519 13.3015 23.1563 13.3015H23.7977C24.7985 13.3015 25.6148 14.3222 25.6148 15.5826V28.7108C25.6148 29.9699 24.7984 31 23.7977 31H1.81711C0.816291 31 0 29.9699 0 28.7108V15.5826C0 14.3221 0.816291 13.3015 1.81704 13.3015V13.3015C2.17571 13.3015 2.46647 13.0108 2.46647 12.6521V10.2978C2.46647 4.74208 6.92725 0.1011 12.5029 0.00203012C12.6552 -0.000676706 12.9596 -0.000676706 13.1119 0.00203012C18.2246 0.0928754 22.4 4.00283 23.058 8.93512C23.1327 9.49507 22.6751 9.96413 22.1102 9.96413H20.7222C20.2092 9.96413 19.7866 9.57322 19.665 9.07486C19.5543 8.62137 19.4167 8.25593 19.3177 7.99273L19.3173 7.99178L19.3166 7.98997C19.1433 7.53074 18.7388 6.459 17.7624 5.42434C16.7311 4.33136 15.5037 3.63487 14.1137 3.35749C13.2514 3.18646 12.3638 3.18646 11.5015 3.35749C10.1135 3.63532 8.8856 4.33039 7.85276 5.42385C6.87837 6.45516 6.47127 7.53167 6.2979 7.9913L6.2973 7.99287C6.07714 8.57672 5.66806 9.66152 5.78338 11.088C5.9106 12.659 6.59474 13.8066 6.81997 14.1838C6.96132 14.4169 7.24402 14.8624 7.81177 15.6621C7.93062 15.8319 8.03713 15.9758 8.13104 16.1027L8.13108 16.1027L8.18304 16.173L8.18449 16.175L8.18451 16.175C8.44742 16.5316 8.59275 16.7288 8.7423 17.0395C8.94677 17.4641 9.09731 17.9126 9.19038 18.3745C9.23513 18.5936 9.4279 18.7511 9.65168 18.7512H15.9639C16.1908 18.7509 16.3853 18.589 16.4266 18.3661C16.5105 17.9077 16.6595 17.4637 16.8691 17.0475C17.0327 16.7242 17.1836 16.5172 17.4571 16.1421L17.4572 16.1421L17.459 16.1396C17.5584 16.0035 17.6715 15.8481 17.8062 15.6588L17.8142 15.6475L17.8143 15.6474C18.2015 15.1022 18.5365 14.6305 18.7957 14.1815C18.8427 14.1017 18.9044 13.9968 18.9745 13.8688C19.1644 13.5217 19.5182 13.2856 19.9139 13.2856H23.1403C23.1447 13.2856 23.1483 13.2891 23.1483 13.2935V13.2935ZM9.98422 19.7116H15.6317C15.8918 19.7116 16.1029 20.028 16.1029 20.4179C16.1029 20.8079 15.8918 21.1243 15.6317 21.1243H9.98422C9.72365 21.1243 9.51303 20.8079 9.51303 20.4179C9.51303 20.028 9.72413 19.7116 9.98422 19.7116ZM15.6317 22.0659H9.98422C9.72413 22.0659 9.51303 22.3824 9.51303 22.7723C9.51303 23.1622 9.72365 23.4787 9.98422 23.4787H15.6317C15.8918 23.4787 16.1029 23.1622 16.1029 22.7723C16.1029 22.3824 15.8918 22.0659 15.6317 22.0659ZM11.3936 24.4206H14.2207C14.4793 24.4206 14.6918 24.7371 14.6918 25.127C14.6918 25.5169 14.4808 25.8334 14.2207 25.8334H11.3936C11.1331 25.8334 10.9225 25.5169 10.9225 25.127C10.9225 24.7371 11.1336 24.4206 11.3936 24.4206Z" fill="#2DC86D"/>
</svg>
