<svg width="25" height="24" viewBox="0 0 25 24" fill="none" xmlns="http://www.w3.org/2000/svg">
<path d="M20.75 0H4.25C2.17893 0 0.5 1.67893 0.5 3.75V20.25C0.5 22.3211 2.17893 24 4.25 24H20.75C22.8211 24 24.5 22.3211 24.5 20.25V3.75C24.5 1.67893 22.8211 0 20.75 0Z" fill="#F00073"/>
<path d="M12.5004 6.8999C14.1504 6.8999 14.3754 6.8999 15.0504 6.8999C15.6504 6.8999 15.9504 7.0499 16.1754 7.1249C16.4754 7.2749 16.7004 7.3499 16.9254 7.5749C17.1504 7.7999 17.3004 8.0249 17.3754 8.3249C17.4504 8.5499 17.5254 8.8499 17.6004 9.4499C17.6004 10.1249 17.6004 10.2749 17.6004 11.9999C17.6004 13.7249 17.6004 13.8749 17.6004 14.5499C17.6004 15.1499 17.4504 15.4499 17.3754 15.6749C17.2254 15.9749 17.1504 16.1999 16.9254 16.4249C16.7004 16.6499 16.4754 16.7999 16.1754 16.8749C15.9504 16.9499 15.6504 17.0249 15.0504 17.0999C14.3754 17.0999 14.2254 17.0999 12.5004 17.0999C10.7754 17.0999 10.6254 17.0999 9.95039 17.0999C9.35039 17.0999 9.05039 16.9499 8.82539 16.8749C8.52539 16.7249 8.30039 16.6499 8.07539 16.4249C7.85039 16.1999 7.70039 15.9749 7.62539 15.6749C7.55039 15.4499 7.47539 15.1499 7.40039 14.5499C7.40039 13.8749 7.40039 13.7249 7.40039 11.9999C7.40039 10.2749 7.40039 10.1249 7.40039 9.4499C7.40039 8.8499 7.55039 8.5499 7.62539 8.3249C7.77539 8.0249 7.85039 7.7999 8.07539 7.5749C8.30039 7.3499 8.52539 7.1999 8.82539 7.1249C9.05039 7.0499 9.35039 6.9749 9.95039 6.8999C10.6254 6.8999 10.8504 6.8999 12.5004 6.8999ZM12.5004 5.7749C10.7754 5.7749 10.6254 5.7749 9.95039 5.7749C9.27539 5.7749 8.82539 5.9249 8.45039 6.0749C8.07539 6.2249 7.70039 6.4499 7.32539 6.8249C6.95039 7.1999 6.80039 7.4999 6.57539 7.9499C6.42539 8.3249 6.35039 8.7749 6.27539 9.4499C6.27539 10.1249 6.27539 10.3499 6.27539 11.9999C6.27539 13.7249 6.27539 13.8749 6.27539 14.5499C6.27539 15.2249 6.42539 15.6749 6.57539 16.0499C6.72539 16.4249 6.95039 16.7999 7.32539 17.1749C7.70039 17.5499 8.00039 17.6999 8.45039 17.9249C8.82539 18.0749 9.27539 18.1499 9.95039 18.2249C10.6254 18.2249 10.8504 18.2249 12.5004 18.2249C14.1504 18.2249 14.3754 18.2249 15.0504 18.2249C15.7254 18.2249 16.1754 18.0749 16.5504 17.9249C16.9254 17.7749 17.3004 17.5499 17.6754 17.1749C18.0504 16.7999 18.2004 16.4999 18.4254 16.0499C18.5754 15.6749 18.6504 15.2249 18.7254 14.5499C18.7254 13.8749 18.7254 13.6499 18.7254 11.9999C18.7254 10.3499 18.7254 10.1249 18.7254 9.4499C18.7254 8.7749 18.5754 8.3249 18.4254 7.9499C18.2754 7.5749 18.0504 7.1999 17.6754 6.8249C17.3004 6.4499 17.0004 6.2999 16.5504 6.0749C16.1754 5.9249 15.7254 5.8499 15.0504 5.7749C14.3754 5.7749 14.2254 5.7749 12.5004 5.7749Z" fill="white"/>
<path d="M12.5004 8.7749C10.7004 8.7749 9.27539 10.1999 9.27539 11.9999C9.27539 13.7999 10.7004 15.2249 12.5004 15.2249C14.3004 15.2249 15.7254 13.7999 15.7254 11.9999C15.7254 10.1999 14.3004 8.7749 12.5004 8.7749ZM12.5004 14.0999C11.3754 14.0999 10.4004 13.1999 10.4004 11.9999C10.4004 10.8749 11.3004 9.8999 12.5004 9.8999C13.6254 9.8999 14.6004 10.7999 14.6004 11.9999C14.6004 13.1249 13.6254 14.0999 12.5004 14.0999Z" fill="white"/>
<path d="M15.8004 9.4499C16.2146 9.4499 16.5504 9.11412 16.5504 8.6999C16.5504 8.28569 16.2146 7.9499 15.8004 7.9499C15.3862 7.9499 15.0504 8.28569 15.0504 8.6999C15.0504 9.11412 15.3862 9.4499 15.8004 9.4499Z" fill="white"/>
</svg>
