<svg width="143" height="31" viewBox="0 0 143 31" fill="none" xmlns="http://www.w3.org/2000/svg">
<path fill-rule="evenodd" clip-rule="evenodd" d="M23.1483 13.2935C23.1483 13.298 23.1519 13.3015 23.1563 13.3015H23.7977C24.7985 13.3015 25.6148 14.3222 25.6148 15.5826V28.7108C25.6148 29.9699 24.7984 31 23.7977 31H1.81711C0.816291 31 0 29.9699 0 28.7108V15.5826C0 14.3221 0.816291 13.3015 1.81704 13.3015V13.3015C2.17571 13.3015 2.46647 13.0108 2.46647 12.6521V10.2978C2.46647 4.74208 6.92725 0.1011 12.5029 0.00203011C12.6552 -0.000676713 12.9596 -0.000676713 13.1119 0.00203011C18.2246 0.0928754 22.4 4.00283 23.058 8.93512C23.1327 9.49507 22.6751 9.96413 22.1102 9.96413H20.7222C20.2092 9.96413 19.7866 9.57322 19.665 9.07486C19.5543 8.62137 19.4167 8.25593 19.3177 7.99273L19.3173 7.99178L19.3166 7.98997C19.1433 7.53074 18.7388 6.459 17.7624 5.42434C16.7311 4.33136 15.5037 3.63487 14.1137 3.35749C13.2514 3.18646 12.3638 3.18646 11.5015 3.35749C10.1135 3.63532 8.8856 4.33039 7.85276 5.42385C6.87837 6.45516 6.47127 7.53167 6.2979 7.9913L6.2973 7.99287C6.07714 8.57672 5.66806 9.66152 5.78338 11.088C5.9106 12.659 6.59474 13.8066 6.81997 14.1838C6.96132 14.4169 7.24402 14.8624 7.81177 15.6621C7.93062 15.8319 8.03713 15.9758 8.13104 16.1027L8.13108 16.1027L8.18304 16.173L8.18449 16.175L8.18451 16.175C8.44742 16.5316 8.59275 16.7288 8.7423 17.0395C8.94677 17.4641 9.09731 17.9126 9.19038 18.3745C9.23513 18.5936 9.4279 18.7511 9.65168 18.7512H15.9639C16.1908 18.7509 16.3853 18.589 16.4266 18.3661C16.5105 17.9077 16.6595 17.4637 16.8691 17.0475C17.0327 16.7242 17.1836 16.5172 17.4571 16.1421L17.4572 16.1421L17.459 16.1396C17.5584 16.0035 17.6715 15.8481 17.8062 15.6588L17.8142 15.6475L17.8143 15.6474C18.2015 15.1022 18.5365 14.6305 18.7957 14.1815C18.8427 14.1017 18.9044 13.9968 18.9745 13.8688C19.1644 13.5217 19.5182 13.2856 19.9139 13.2856H23.1403C23.1447 13.2856 23.1483 13.2891 23.1483 13.2935V13.2935ZM9.98422 19.7116H15.6317C15.8918 19.7116 16.1029 20.028 16.1029 20.4179C16.1029 20.8079 15.8918 21.1243 15.6317 21.1243H9.98422C9.72365 21.1243 9.51303 20.8079 9.51303 20.4179C9.51303 20.028 9.72413 19.7116 9.98422 19.7116ZM15.6317 22.0659H9.98422C9.72413 22.0659 9.51303 22.3824 9.51303 22.7723C9.51303 23.1622 9.72365 23.4787 9.98422 23.4787H15.6317C15.8918 23.4787 16.1029 23.1622 16.1029 22.7723C16.1029 22.3824 15.8918 22.0659 15.6317 22.0659ZM11.3936 24.4206H14.2207C14.4793 24.4206 14.6918 24.7371 14.6918 25.127C14.6918 25.5169 14.4808 25.8334 14.2207 25.8334H11.3936C11.1331 25.8334 10.9225 25.5169 10.9225 25.127C10.9225 24.7371 11.1336 24.4206 11.3936 24.4206Z" fill="#2DC86D"/>
<path d="M53.387 10.0584C53.3973 10.0584 53.4027 10.0706 53.3957 10.078V10.078C53.3886 10.0854 53.394 10.0977 53.4042 10.0977C55.5727 10.1036 57.2936 10.8108 58.567 12.2193C59.8457 13.6337 60.4851 15.5721 60.4851 18.0342V29.1356C60.4851 29.6878 60.0374 30.1356 59.4851 30.1356H56.7087C56.1564 30.1356 55.7087 29.6878 55.7087 29.1356V18.9379C55.7087 17.4973 55.3451 16.371 54.618 15.559C53.8909 14.747 52.8754 14.341 51.5716 14.341C50.1675 14.341 49.0392 14.7994 48.1867 15.7161C47.3593 16.6067 46.908 17.8509 46.8328 19.4487V29.1356C46.8328 29.6878 46.3851 30.1356 45.8328 30.1356H43.1316C42.5793 30.1356 42.1316 29.6878 42.1316 29.1356V2.84674C42.1316 2.29446 42.5793 1.84674 43.1316 1.84674H45.8328C46.3851 1.84674 46.8328 2.29446 46.8328 2.84674V14.3185C46.8328 14.3309 46.8428 14.341 46.8553 14.341V14.341C46.8644 14.341 46.8727 14.3353 46.8761 14.3268C48.0277 11.4893 50.198 10.0665 53.387 10.0584Z" fill="#0F0E2D"/>
<path d="M70.1666 6.36509C69.4896 6.99373 68.6371 7.30805 67.6091 7.30805C66.5812 7.30805 65.7161 6.99373 65.0141 6.36509C64.3371 5.71026 63.9986 4.89827 63.9986 3.92911C63.9986 2.95996 64.3371 2.16106 65.0141 1.53242C65.7161 0.877587 66.5812 0.550171 67.6091 0.550171C68.6371 0.550171 69.4896 0.877587 70.1666 1.53242C70.8686 2.16106 71.2197 2.95996 71.2197 3.92911C71.2197 4.89827 70.8686 5.71026 70.1666 6.36509ZM66.2397 30.0963C65.6875 30.0963 65.2397 29.6485 65.2397 29.0963V11.4513C65.2397 10.899 65.6875 10.4513 66.2397 10.4513H68.9409C69.4932 10.4513 69.9409 10.899 69.9409 11.4513V29.0963C69.9409 29.6485 69.4932 30.0963 68.9409 30.0963H66.2397Z" fill="#0F0E2D"/>
<path d="M89.9728 2.79913C89.9728 2.25011 90.4154 1.80375 90.9644 1.79916L93.6656 1.77659C94.2211 1.77195 94.674 2.221 94.674 2.77655V29.057C94.674 29.6093 94.2262 30.057 93.674 30.057H90.9728C90.4205 30.057 89.9728 29.6093 89.9728 29.057V26.2131C89.9728 26.1878 89.9522 26.1673 89.9269 26.1673V26.1673C89.909 26.1673 89.8927 26.1778 89.8852 26.194C89.2587 27.5432 88.3477 28.5951 87.152 29.3498C85.9736 30.0832 84.6071 30.4499 83.0526 30.4499C80.4199 30.4499 78.2135 29.4807 76.4333 27.5424C74.6782 25.6041 73.8006 23.1812 73.8006 20.2738C73.8006 17.3401 74.6782 14.9041 76.4333 12.9658C78.2135 11.0013 80.4199 10.0191 83.0526 10.0191C84.6071 10.0191 85.9736 10.3989 87.152 11.1585C88.3477 11.9131 89.2587 12.965 89.8852 14.3142C89.8927 14.3305 89.909 14.341 89.9269 14.341V14.341C89.9522 14.341 89.9728 14.3204 89.9728 14.2951V2.79913ZM84.3792 26.2458C84.3966 26.2459 84.4133 26.2387 84.4253 26.2262V26.2262C84.4373 26.2136 84.4541 26.2066 84.4715 26.2065C86.1139 26.2006 87.4587 25.6637 88.506 24.5957C89.5841 23.4955 90.1483 22.0942 90.1984 20.3916V20.0773C90.1483 18.3747 89.5841 16.9865 88.506 15.9126C87.4278 14.8124 86.0614 14.2624 84.4065 14.2624C82.7266 14.2624 81.3476 14.8255 80.2695 15.9519C79.1913 17.0782 78.6523 18.5057 78.6523 20.2345C78.6523 21.9894 79.1913 23.4301 80.2695 24.5564C81.3418 25.6766 82.7117 26.2397 84.3792 26.2458Z" fill="#0F0E2D"/>
<path d="M113.857 22.913C113.994 22.4092 114.415 22.0025 114.937 22.0025H117.727C118.303 22.0025 118.765 22.4894 118.671 23.0574C118.332 25.0945 117.368 26.786 115.78 28.1318C113.949 29.6772 111.668 30.4499 108.935 30.4499C105.901 30.4499 103.419 29.4938 101.488 27.5817C99.5825 25.6434 98.6297 23.1681 98.6297 20.1559C98.6297 17.196 99.57 14.7732 101.45 12.8872C103.356 10.9751 105.801 10.0191 108.784 10.0191C111.768 10.0191 114.137 10.9358 115.893 12.7694C117.481 14.4056 118.321 16.532 118.412 19.1485C118.431 19.6878 117.984 20.1166 117.445 20.1166H104.194C103.636 20.1166 103.179 20.5739 103.245 21.1274C103.415 22.5719 103.92 23.7542 104.76 24.6742C105.788 25.7744 107.142 26.3244 108.822 26.3244C110.251 26.3244 111.442 25.9315 112.395 25.1457C113.13 24.5349 113.618 23.7906 113.857 22.913ZM108.709 13.673C106.977 13.673 105.632 14.2151 104.675 15.2992C104.189 15.8491 104.664 16.6198 105.398 16.6198H111.939C112.645 16.6198 113.127 15.8973 112.689 15.3433C111.81 14.2298 110.484 13.673 108.709 13.673Z" fill="#0F0E2D"/>
<path d="M137.646 11.4429C137.646 10.8939 138.088 10.4476 138.637 10.443L141.339 10.4204C141.894 10.4157 142.347 10.8648 142.347 11.4204V29.057C142.347 29.6093 141.899 30.057 141.347 30.057H138.646C138.094 30.057 137.646 29.6093 137.646 29.057V26.2131C137.646 26.1878 137.625 26.1673 137.6 26.1673V26.1673C137.582 26.1673 137.566 26.1778 137.558 26.194C136.932 27.5432 136.021 28.5951 134.825 29.3498C133.647 30.0832 132.28 30.4499 130.726 30.4499C128.093 30.4499 125.887 29.4807 124.106 27.5424C122.351 25.6041 121.474 23.1812 121.474 20.2738C121.474 17.3401 122.351 14.9041 124.106 12.9658C125.887 11.0013 128.093 10.0191 130.726 10.0191C132.28 10.0191 133.647 10.3989 134.825 11.1585C136.021 11.9131 136.932 12.965 137.558 14.3142C137.566 14.3305 137.582 14.341 137.6 14.341V14.341C137.625 14.341 137.646 14.3204 137.646 14.2951V11.4429ZM132.06 26.2458C132.071 26.2458 132.08 26.237 132.08 26.2262V26.2262C132.08 26.2153 132.089 26.2066 132.099 26.2065C133.77 26.2021 135.143 25.639 136.217 24.5171C137.295 23.3908 137.834 21.9632 137.834 20.2345C137.834 18.5057 137.295 17.0782 136.217 15.9519C135.139 14.8255 133.76 14.2624 132.08 14.2624C130.4 14.2624 129.021 14.8255 127.943 15.9519C126.864 17.0782 126.325 18.5057 126.325 20.2345C126.325 21.9894 126.864 23.4301 127.943 24.5564C129.016 25.6783 130.389 26.2414 132.06 26.2458Z" fill="#0F0E2D"/>
</svg>
