<svg width="40" height="40" viewBox="0 0 40 40" fill="none" xmlns="http://www.w3.org/2000/svg">
<rect width="40" height="40" rx="8" fill="white"/>
<path d="M30 16.5C30 19.76 27.6 22.45 24.48 22.92V22.86C24.17 18.98 21.02 15.83 17.11 15.52H17.08C17.55 12.4 20.24 10 23.5 10C27.09 10 30 12.91 30 16.5Z" fill="#2DC86D"/>
<path d="M22.98 22.98C22.73 19.81 20.19 17.27 17.02 17.02C16.85 17.01 16.67 17 16.5 17C12.91 17 10 19.91 10 23.5C10 27.09 12.91 30 16.5 30C20.09 30 23 27.09 23 23.5C23 23.33 22.99 23.15 22.98 22.98ZM17.38 24.38L16.5 26L15.62 24.38L14 23.5L15.62 22.62L16.5 21L17.38 22.62L19 23.5L17.38 24.38Z" fill="#2DC86D"/>
</svg>
