<svg width="20" height="20" viewBox="0 0 20 20" fill="none" xmlns="http://www.w3.org/2000/svg">
<path d="M11.0445 15.0816L11.064 15.064L11.0816 15.0445C11.198 14.9152 11.3063 14.7657 11.3842 14.566C11.454 14.3964 11.5 14.2033 11.5 14C11.5 13.7941 11.4528 13.5988 11.3815 13.4277C11.3091 13.2538 11.2081 13.096 11.0816 12.9555L11.064 12.936L11.0445 12.9184C10.904 12.7919 10.7462 12.6909 10.5723 12.6185C10.2092 12.4672 9.79077 12.4672 9.42769 12.6185C9.25375 12.6909 9.09601 12.7919 8.95552 12.9184L8.93596 12.936L8.91835 12.9555C8.79191 13.096 8.69094 13.2538 8.61846 13.4277C8.54715 13.5988 8.5 13.7941 8.5 14C8.5 14.2033 8.546 14.3964 8.61585 14.566C8.69374 14.7657 8.80197 14.9152 8.91835 15.0445L8.93596 15.064L8.95552 15.0816C9.09601 15.2081 9.25375 15.3091 9.42769 15.3815C9.59884 15.4528 9.79415 15.5 10 15.5C10.2059 15.5 10.4012 15.4528 10.5723 15.3815C10.7462 15.3091 10.904 15.2081 11.0445 15.0816ZM0.5 10C0.5 4.76614 4.76614 0.5 10 0.5C15.2339 0.5 19.5 4.76614 19.5 10C19.5 15.2339 15.2339 19.5 10 19.5C4.76614 19.5 0.5 15.2339 0.5 10ZM10 4.75C9.31386 4.75 8.75 5.31386 8.75 6V11C8.75 11.6861 9.31386 12.25 10 12.25C10.6861 12.25 11.25 11.6861 11.25 11V6C11.25 5.31386 10.6861 4.75 10 4.75Z" fill="#117DB7" stroke="#117DB7"/>
</svg>
