<svg width="16" height="16" viewBox="0 0 16 16" fill="none" xmlns="http://www.w3.org/2000/svg">
<path d="M8 16C12.4183 16 16 12.4183 16 8C16 3.58172 12.4183 0 8 0C3.58172 0 0 3.58172 0 8C0 12.4183 3.58172 16 8 16Z" fill="#2DC86D"/>
<path d="M13.0801 5.2725L11.9751 4.17C11.9151 4.11 11.8176 4.11 11.7551 4.17L6.66256 9.2625L4.27506 6.875C4.21506 6.815 4.11756 6.815 4.05506 6.875L2.91756 8.01C2.89006 8.04 2.87256 8.0775 2.87256 8.12C2.87256 8.16 2.89006 8.2 2.91756 8.2275L6.52006 11.83C6.55006 11.86 6.58756 11.875 6.63006 11.875C6.67006 11.875 6.71006 11.86 6.73756 11.83L13.0776 5.4925C13.1401 5.4325 13.1401 5.3325 13.0801 5.2725Z" fill="white"/>
</svg>
