<svg width="56" height="56" viewBox="0 0 56 56" fill="none" xmlns="http://www.w3.org/2000/svg">
<rect width="56" height="56" rx="5" fill="url(#paint0_linear_374_5299)"/>
<g filter="url(#filter0_d_374_5299)">
<path d="M33.34 21.46C33.1027 21.46 32.8707 21.5304 32.6733 21.6622C32.476 21.7941 32.3222 21.9815 32.2313 22.2008C32.1405 22.4201 32.1168 22.6613 32.1631 22.8941C32.2094 23.1269 32.3236 23.3407 32.4915 23.5085C32.6593 23.6764 32.8731 23.7906 33.1059 23.8369C33.3387 23.8832 33.5799 23.8595 33.7992 23.7687C34.0185 23.6778 34.2059 23.524 34.3378 23.3267C34.4696 23.1293 34.54 22.8973 34.54 22.66C34.54 22.3417 34.4136 22.0365 34.1885 21.8115C33.9635 21.5864 33.6583 21.46 33.34 21.46ZM37.94 23.88C37.9206 23.0503 37.7652 22.2294 37.48 21.45C37.2257 20.7831 36.83 20.1793 36.32 19.68C35.8248 19.1674 35.2196 18.7742 34.55 18.53C33.7727 18.2362 32.9508 18.0772 32.12 18.06C31.06 18 30.72 18 28 18C25.28 18 24.94 18 23.88 18.06C23.0492 18.0772 22.2273 18.2362 21.45 18.53C20.7817 18.7766 20.1769 19.1696 19.68 19.68C19.1674 20.1752 18.7742 20.7804 18.53 21.45C18.2362 22.2273 18.0772 23.0492 18.06 23.88C18 24.94 18 25.28 18 28C18 30.72 18 31.06 18.06 32.12C18.0772 32.9508 18.2362 33.7727 18.53 34.55C18.7742 35.2196 19.1674 35.8248 19.68 36.32C20.1769 36.8304 20.7817 37.2234 21.45 37.47C22.2273 37.7638 23.0492 37.9228 23.88 37.94C24.94 38 25.28 38 28 38C30.72 38 31.06 38 32.12 37.94C32.9508 37.9228 33.7727 37.7638 34.55 37.47C35.2196 37.2258 35.8248 36.8326 36.32 36.32C36.8322 35.8226 37.2283 35.2182 37.48 34.55C37.7652 33.7706 37.9206 32.9497 37.94 32.12C37.94 31.06 38 30.72 38 28C38 25.28 38 24.94 37.94 23.88ZM36.14 32C36.1327 32.6348 36.0178 33.2637 35.8 33.86C35.6403 34.2952 35.3839 34.6884 35.05 35.01C34.7256 35.3405 34.3332 35.5964 33.9 35.76C33.3037 35.9778 32.6748 36.0927 32.04 36.1C31.04 36.15 30.67 36.16 28.04 36.16C25.41 36.16 25.04 36.16 24.04 36.1C23.3809 36.1123 22.7246 36.0109 22.1 35.8C21.6858 35.6281 21.3114 35.3728 21 35.05C20.6681 34.7287 20.4148 34.3352 20.26 33.9C20.0159 33.2952 19.8804 32.6519 19.86 32C19.86 31 19.8 30.63 19.8 28C19.8 25.37 19.8 25 19.86 24C19.8645 23.3511 19.983 22.7079 20.21 22.1C20.386 21.6779 20.6563 21.3017 21 21C21.3038 20.6562 21.6793 20.3831 22.1 20.2C22.7096 19.98 23.352 19.8651 24 19.86C25 19.86 25.37 19.8 28 19.8C30.63 19.8 31 19.8 32 19.86C32.6348 19.8673 33.2637 19.9822 33.86 20.2C34.3144 20.3687 34.7223 20.6428 35.05 21C35.3777 21.3072 35.6338 21.6827 35.8 22.1C36.0223 22.7089 36.1373 23.3518 36.14 24C36.19 25 36.2 25.37 36.2 28C36.2 30.63 36.19 31 36.14 32ZM28 22.87C26.9858 22.872 25.995 23.1745 25.1527 23.7394C24.3103 24.3043 23.6544 25.1062 23.2676 26.0438C22.8809 26.9813 22.7807 28.0125 22.9798 29.0069C23.1789 30.0014 23.6682 30.9145 24.3861 31.631C25.1039 32.3474 26.018 32.835 27.0129 33.0321C28.0077 33.2293 29.0387 33.1271 29.9755 32.7385C30.9123 32.35 31.7129 31.6924 32.2761 30.849C32.8394 30.0056 33.14 29.0142 33.14 28C33.1413 27.3251 33.0092 26.6566 32.7512 26.033C32.4933 25.4093 32.1146 24.8428 31.6369 24.3661C31.1592 23.8893 30.5919 23.5117 29.9678 23.2549C29.3436 22.9982 28.6749 22.8674 28 22.87ZM28 31.33C27.3414 31.33 26.6976 31.1347 26.15 30.7688C25.6023 30.4029 25.1755 29.8828 24.9235 29.2743C24.6714 28.6659 24.6055 27.9963 24.734 27.3503C24.8625 26.7044 25.1796 26.111 25.6453 25.6453C26.111 25.1796 26.7044 24.8625 27.3503 24.734C27.9963 24.6055 28.6659 24.6714 29.2743 24.9235C29.8828 25.1755 30.4029 25.6023 30.7688 26.15C31.1347 26.6976 31.33 27.3414 31.33 28C31.33 28.4373 31.2439 28.8703 31.0765 29.2743C30.9092 29.6784 30.6639 30.0454 30.3547 30.3547C30.0454 30.6639 29.6784 30.9092 29.2743 31.0765C28.8703 31.2439 28.4373 31.33 28 31.33Z" fill="white"/>
</g>
<defs>
<filter id="filter0_d_374_5299" x="12" y="16" width="32" height="32" filterUnits="userSpaceOnUse" color-interpolation-filters="sRGB">
<feFlood flood-opacity="0" result="BackgroundImageFix"/>
<feColorMatrix in="SourceAlpha" type="matrix" values="0 0 0 0 0 0 0 0 0 0 0 0 0 0 0 0 0 0 127 0" result="hardAlpha"/>
<feOffset dy="4"/>
<feGaussianBlur stdDeviation="2"/>
<feComposite in2="hardAlpha" operator="out"/>
<feColorMatrix type="matrix" values="0 0 0 0 0 0 0 0 0 0 0 0 0 0 0 0 0 0 0.25 0"/>
<feBlend mode="normal" in2="BackgroundImageFix" result="effect1_dropShadow_374_5299"/>
<feBlend mode="normal" in="SourceGraphic" in2="effect1_dropShadow_374_5299" result="shape"/>
</filter>
<linearGradient id="paint0_linear_374_5299" x1="28" y1="0" x2="28" y2="56" gradientUnits="userSpaceOnUse">
<stop stop-color="#FA6161"/>
<stop offset="1" stop-color="#D126FB" stop-opacity="0.6"/>
</linearGradient>
</defs>
</svg>
