<svg width="16" height="16" viewBox="0 0 16 16" fill="none" xmlns="http://www.w3.org/2000/svg">
<path d="M8 11.5667C8.60015 11.5667 9.08666 11.0801 9.08666 10.48C9.08666 9.87985 8.60015 9.39333 8 9.39333C7.39985 9.39333 6.91333 9.87985 6.91333 10.48C6.91333 11.0801 7.39985 11.5667 8 11.5667Z" fill="#2DC86D"/>
<path d="M12.1866 6.35333V5.52C12.1866 3.72 11.7533 1.33333 7.99998 1.33333C4.24665 1.33333 3.81331 3.72 3.81331 5.52V6.35333C1.94665 6.58667 1.33331 7.53333 1.33331 9.86V11.1C1.33331 13.8333 2.16665 14.6667 4.89998 14.6667H11.1C13.8333 14.6667 14.6666 13.8333 14.6666 11.1V9.86C14.6666 7.53333 14.0533 6.58667 12.1866 6.35333ZM7.99998 12.4933C6.88665 12.4933 5.98665 11.5867 5.98665 10.48C5.98665 9.36667 6.89331 8.46667 7.99998 8.46667C9.10665 8.46667 10.0133 9.37333 10.0133 10.48C10.0133 11.5933 9.11331 12.4933 7.99998 12.4933ZM4.89998 6.29333C4.84665 6.29333 4.79998 6.29333 4.74665 6.29333V5.52C4.74665 3.56667 5.29998 2.26667 7.99998 2.26667C10.7 2.26667 11.2533 3.56667 11.2533 5.52V6.3C11.2 6.3 11.1533 6.3 11.1 6.3H4.89998V6.29333Z" fill="#2DC86D"/>
</svg>
