<svg width="20" height="20" viewBox="0 0 20 20" fill="none" xmlns="http://www.w3.org/2000/svg">
<path d="M15.8333 9.99984H9.99996V4.1665C9.99996 3.6665 9.66663 3.33317 9.16663 3.33317C4.99996 3.33317 1.66663 6.6665 1.66663 10.8332C1.66663 14.9998 4.99996 18.3332 9.16663 18.3332C13.3333 18.3332 16.6666 14.9998 16.6666 10.8332C16.6666 10.3332 16.3333 9.99984 15.8333 9.99984ZM12.5 1.6665C12 1.6665 11.6666 1.99984 11.6666 2.49984V7.49984C11.6666 7.99984 12 8.33317 12.5 8.33317H17.5C18 8.33317 18.3333 7.99984 18.3333 7.49984C18.3333 4.24984 15.75 1.6665 12.5 1.6665ZM13.3333 6.6665V3.4165C15 3.74984 16.25 4.99984 16.5833 6.6665H13.3333Z" fill="#2DC86D"/>
</svg>
