<svg width="20" height="20" viewBox="0 0 20 20" fill="none" xmlns="http://www.w3.org/2000/svg">
<path d="M12.375 3.29183V6.4585H11.125V3.29183C11.125 3.06683 10.925 2.9585 10.7917 2.9585C10.75 2.9585 10.7084 2.96683 10.6667 2.9835L4.05837 5.47516C3.61671 5.64183 3.33337 6.0585 3.33337 6.5335V7.09183C2.57504 7.6585 2.08337 8.56683 2.08337 9.59183V6.5335C2.08337 5.54183 2.69171 4.6585 3.61671 4.3085L10.2334 1.8085C10.4167 1.74183 10.6084 1.7085 10.7917 1.7085C11.625 1.7085 12.375 2.3835 12.375 3.29183Z" fill="#2DC86D"/>
<path d="M17.9167 12.0832V12.9165C17.9167 13.1415 17.7417 13.3248 17.5083 13.3332H16.2917C15.85 13.3332 15.45 13.0082 15.4167 12.5748C15.3917 12.3165 15.4917 12.0748 15.6583 11.9082C15.8083 11.7498 16.0167 11.6665 16.2417 11.6665H17.5C17.7417 11.6748 17.9167 11.8582 17.9167 12.0832Z" fill="#2DC86D"/>
<path d="M16.2334 10.7918H17.0834C17.5417 10.7918 17.9167 10.4168 17.9167 9.9585V9.59183C17.9167 7.86683 16.5084 6.4585 14.7834 6.4585H5.21671C4.50837 6.4585 3.85837 6.69183 3.33337 7.09183C2.57504 7.6585 2.08337 8.56683 2.08337 9.59183V15.2002C2.08337 16.9252 3.49171 18.3335 5.21671 18.3335H14.7834C16.5084 18.3335 17.9167 16.9252 17.9167 15.2002V15.0418C17.9167 14.5835 17.5417 14.2085 17.0834 14.2085H16.3584C15.5584 14.2085 14.7917 13.7168 14.5834 12.9418C14.4084 12.3085 14.6167 11.7002 15.0334 11.2918C15.3417 10.9752 15.7667 10.7918 16.2334 10.7918ZM11.6667 10.6252H5.83337C5.49171 10.6252 5.20837 10.3418 5.20837 10.0002C5.20837 9.6585 5.49171 9.37516 5.83337 9.37516H11.6667C12.0084 9.37516 12.2917 9.6585 12.2917 10.0002C12.2917 10.3418 12.0084 10.6252 11.6667 10.6252Z" fill="#2DC86D"/>
</svg>
