<svg width="40" height="40" viewBox="0 0 40 40" fill="none" xmlns="http://www.w3.org/2000/svg">
<rect width="40" height="40" rx="8" fill="white"/>
<path d="M21.2978 10.1156C21.0064 10.0643 20.75 10.2968 20.75 10.5928V13.4535C20.75 13.6519 20.8709 13.8266 21.0359 13.9368C21.5391 14.2729 21.87 14.8469 21.87 15.5V17.5C21.87 18.53 21.03 19.38 20 19.38C18.96 19.38 18.12 18.53 18.12 17.5V15.5C18.12 14.8467 18.4583 14.2726 18.9639 13.9365C19.1291 13.8266 19.25 13.6519 19.25 13.4535V10.5934C19.25 10.2973 18.9935 10.0646 18.7019 10.116C17.1524 10.3893 15.7658 11.1342 14.7 12.2C13.34 13.56 12.5 15.44 12.5 17.5V22.5C12.5 26.63 15.87 30 20 30C24.13 30 27.5 26.63 27.5 22.5V17.5C27.5 13.8095 24.813 10.7342 21.2978 10.1156Z" fill="#2DC86D"/>
</svg>
