<svg width="16" height="16" viewBox="0 0 16 16" fill="none" xmlns="http://www.w3.org/2000/svg">
<path d="M11.3333 2.33334H4.66665C2.66665 2.33334 1.33331 3.33334 1.33331 5.66667V10.3333C1.33331 12.6667 2.66665 13.6667 4.66665 13.6667H11.3333C13.3333 13.6667 14.6666 12.6667 14.6666 10.3333V5.66667C14.6666 3.33334 13.3333 2.33334 11.3333 2.33334ZM11.6466 6.39334L9.55998 8.06C9.11998 8.41334 8.55998 8.58667 7.99998 8.58667C7.43998 8.58667 6.87331 8.41334 6.43998 8.06L4.35331 6.39334C4.13998 6.22 4.10665 5.9 4.27331 5.68667C4.44665 5.47334 4.75998 5.43334 4.97331 5.60667L7.05998 7.27334C7.56665 7.68 8.42665 7.68 8.93331 7.27334L11.02 5.60667C11.2333 5.43334 11.5533 5.46667 11.72 5.68667C11.8933 5.9 11.86 6.22 11.6466 6.39334Z" fill="#2DC86D"/>
</svg>
