<svg width="760" height="900" viewBox="0 0 760 900" fill="none" xmlns="http://www.w3.org/2000/svg">
<path opacity="0.3" fill-rule="evenodd" clip-rule="evenodd" d="M535 627C659.264 627 760 526.264 760 402C760 277.736 659.264 177 535 177C410.736 177 310 277.736 310 402C310 526.264 410.736 627 535 627ZM535 514.5C597.132 514.5 647.5 464.132 647.5 402C647.5 339.868 597.132 289.5 535 289.5C472.868 289.5 422.5 339.868 422.5 402C422.5 464.132 472.868 514.5 535 514.5Z" fill="#B9EDCE"/>
<path opacity="0.3" fill-rule="evenodd" clip-rule="evenodd" d="M50 968C174.264 968 275 867.264 275 743C275 618.736 174.264 518 50 518C-74.2641 518 -175 618.736 -175 743C-175 867.264 -74.2641 968 50 968ZM50 855.5C112.132 855.5 162.5 805.132 162.5 743C162.5 680.868 112.132 630.5 50 630.5C-12.132 630.5 -62.5 680.868 -62.5 743C-62.5 805.132 -12.132 855.5 50 855.5Z" fill="#B9EDCE"/>
<path opacity="0.3" fill-rule="evenodd" clip-rule="evenodd" d="M144 262C268.264 262 369 161.264 369 37C369 -87.2641 268.264 -188 144 -188C19.7359 -188 -81 -87.2641 -81 37C-81 161.264 19.7359 262 144 262ZM144 149.5C206.132 149.5 256.5 99.132 256.5 37C256.5 -25.132 206.132 -75.5 144 -75.5C81.868 -75.5 31.5 -25.132 31.5 37C31.5 99.132 81.868 149.5 144 149.5Z" fill="#B9EDCE"/>
</svg>
