<svg width="56" height="56" viewBox="0 0 56 56" fill="none" xmlns="http://www.w3.org/2000/svg">
<rect width="56" height="56" rx="5" fill="#03A9F4"/>
<path d="M38 22.4238C37.2477 22.7519 36.452 22.97 35.6375 23.0713C36.4958 22.562 37.1376 21.7557 37.4412 20.805C36.6375 21.2817 35.7582 21.6173 34.8412 21.7975C34.2791 21.1972 33.5493 20.7799 32.7469 20.5997C31.9444 20.4196 31.1063 20.4849 30.3415 20.7873C29.5766 21.0896 28.9204 21.615 28.458 22.2952C27.9957 22.9753 27.7485 23.7788 27.7487 24.6013C27.7487 24.9263 27.7762 25.2388 27.8438 25.5363C26.2126 25.4563 24.6167 25.0329 23.1604 24.2939C21.7041 23.5549 20.4201 22.5168 19.3925 21.2475C18.866 22.1498 18.7033 23.2189 18.9374 24.237C19.1714 25.2551 19.7848 26.1457 20.6525 26.7275C20.0034 26.7101 19.3681 26.5369 18.8 26.2225V26.2675C18.8011 27.2143 19.1283 28.1318 19.7266 28.8656C20.325 29.5994 21.1578 30.1046 22.085 30.2963C21.7342 30.3887 21.3727 30.4341 21.01 30.4313C20.7495 30.4359 20.4892 30.4124 20.2337 30.3613C20.4987 31.175 21.0094 31.8867 21.6955 32.3982C22.3816 32.9097 23.2095 33.196 24.065 33.2175C22.6137 34.3526 20.8237 34.9683 18.9813 34.9663C18.645 34.9663 18.3225 34.9513 18 34.91C19.8749 36.1182 22.0596 36.7573 24.29 36.75C31.835 36.75 35.96 30.5 35.96 25.0825C35.96 24.9013 35.9538 24.7263 35.945 24.5525C36.7537 23.9737 37.4501 23.2524 38 22.4238Z" fill="white"/>
</svg>
