<svg width="16" height="16" viewBox="0 0 16 16" fill="none" xmlns="http://www.w3.org/2000/svg">
<path d="M5.70193 4.85872L7.25003 3.31062V11.5C7.25003 11.6989 7.32904 11.8896 7.4697 12.0303C7.61035 12.1709 7.80111 12.25 8.00003 12.25C8.19894 12.25 8.3897 12.1709 8.53035 12.0303C8.67101 11.8896 8.75002 11.6989 8.75002 11.5V3.31062L10.2981 4.85872C10.3677 4.92867 10.4504 4.98421 10.5415 5.02215C10.6325 5.0601 10.7302 5.0797 10.8289 5.07983C10.9275 5.07996 11.0252 5.06063 11.1164 5.02293C11.2076 4.98524 11.2905 4.92993 11.3602 4.86016C11.43 4.7904 11.4853 4.70755 11.523 4.61637C11.5607 4.52519 11.58 4.42747 11.5799 4.32881C11.5798 4.23015 11.5602 4.13248 11.5222 4.04141C11.4843 3.95033 11.4287 3.86764 11.3588 3.79806L8.53037 0.969622C8.46072 0.899974 8.37804 0.844726 8.28705 0.807033C8.19605 0.76934 8.09852 0.749939 8.00003 0.749939C7.90153 0.749939 7.804 0.76934 7.713 0.807033C7.62201 0.844726 7.53933 0.899974 7.46968 0.969622L4.64128 3.79806C4.57133 3.86764 4.51579 3.95033 4.47784 4.04141C4.4399 4.13248 4.4203 4.23015 4.42017 4.32881C4.42003 4.42747 4.43937 4.52519 4.47706 4.61637C4.51476 4.70755 4.57007 4.7904 4.63984 4.86016C4.7096 4.92993 4.79245 4.98524 4.88362 5.02293C4.9748 5.06063 5.07252 5.07996 5.17119 5.07983C5.26985 5.0797 5.36751 5.0601 5.45859 5.02215C5.54967 4.98421 5.63236 4.92867 5.70193 4.85872Z" fill="#2DC86D"/>
<path d="M14.5 7.24999C14.3011 7.24999 14.1103 7.32901 13.9697 7.46966C13.829 7.61031 13.75 7.80108 13.75 7.99999V13.75H2.25V7.99999C2.25 7.80108 2.17098 7.61031 2.03033 7.46966C1.88968 7.32901 1.69891 7.24999 1.5 7.24999C1.30109 7.24999 1.11032 7.32901 0.96967 7.46966C0.829018 7.61031 0.75 7.80108 0.75 7.99999V14C0.75 14.3315 0.881696 14.6495 1.11612 14.8839C1.35054 15.1183 1.66848 15.25 2 15.25H14C14.3315 15.25 14.6495 15.1183 14.8839 14.8839C15.1183 14.6495 15.25 14.3315 15.25 14V7.99999C15.25 7.80108 15.171 7.61031 15.0303 7.46966C14.8897 7.32901 14.6989 7.24999 14.5 7.24999Z" fill="#2DC86D"/>
</svg>
