<svg width="24" height="24" viewBox="0 0 24 24" fill="none" xmlns="http://www.w3.org/2000/svg">
<path d="M7.24 2H5.34C3.15 2 2 3.15 2 5.33V7.23C2 9.41 3.15 10.56 5.33 10.56H7.23C9.41 10.56 10.56 9.41 10.56 7.23V5.33C10.57 3.15 9.42 2 7.24 2Z" fill="#ffffff"/>
<path d="M18.6704 2H16.7704C14.5904 2 13.4404 3.15 13.4404 5.33V7.23C13.4404 9.41 14.5904 10.56 16.7704 10.56H18.6704C20.8504 10.56 22.0004 9.41 22.0004 7.23V5.33C22.0004 3.15 20.8504 2 18.6704 2Z" fill="#ffffff"/>
<path d="M18.6704 13.43H16.7704C14.5904 13.43 13.4404 14.58 13.4404 16.76V18.66C13.4404 20.84 14.5904 21.99 16.7704 21.99H18.6704C20.8504 21.99 22.0004 20.84 22.0004 18.66V16.76C22.0004 14.58 20.8504 13.43 18.6704 13.43Z" fill="#ffffff"/>
<path d="M7.24 13.43H5.34C3.15 13.43 2 14.58 2 16.76V18.66C2 20.85 3.15 22 5.33 22H7.23C9.41 22 10.56 20.85 10.56 18.67V16.77C10.57 14.58 9.42 13.43 7.24 13.43Z" fill="#ffffff"/>
</svg>
