<svg width="24" height="24" viewBox="0 0 24 24" fill="none" xmlns="http://www.w3.org/2000/svg">
<path d="M21.4499 13.64V14.64C21.4499 14.91 21.2399 15.13 20.9599 15.14H19.4999C18.9699 15.14 18.4899 14.75 18.4499 14.23C18.4199 13.92 18.5399 13.63 18.7399 13.43C18.9199 13.24 19.1699 13.14 19.4399 13.14H20.9499C21.2399 13.15 21.4499 13.37 21.4499 13.64Z" fill="#000000"/>
<path d="M17.9902 12.69C17.4902 13.18 17.2502 13.91 17.4502 14.67C17.7102 15.6 18.6202 16.19 19.5802 16.19H20.4502C21.0002 16.19 21.4502 16.64 21.4502 17.19V17.38C21.4502 19.45 19.7602 21.14 17.6902 21.14H6.2102C4.1402 21.14 2.4502 19.45 2.4502 17.38V10.65C2.4502 9.42001 3.0402 8.33001 3.9502 7.65001C4.5802 7.17001 5.3602 6.89001 6.2102 6.89001H17.6902C19.7602 6.89001 21.4502 8.58001 21.4502 10.65V11.09C21.4502 11.64 21.0002 12.09 20.4502 12.09H19.4302C18.8702 12.09 18.3602 12.31 17.9902 12.69Z" fill="#000000"/>
<path d="M16.2001 4.82C16.4701 5.09 16.2401 5.51 15.8601 5.51L8.18006 5.5C7.74006 5.5 7.51006 4.96 7.83006 4.65L9.45006 3.02C10.8201 1.66 13.0401 1.66 14.4101 3.02L16.1601 4.79C16.1701 4.8 16.1901 4.81 16.2001 4.82Z" fill="#000000"/>
</svg>
