<svg width="22" height="20" viewBox="0 0 22 20" fill="none" xmlns="http://www.w3.org/2000/svg">
<path d="M13.9229 2.64282L13.9228 2.64258C13.1154 1.18745 12.0653 0.5 11 0.5C9.93465 0.5 8.88455 1.18745 8.07719 2.64258L8.07706 2.64282L1.6779 14.1613C1.67776 14.1616 1.67762 14.1618 1.67748 14.1621C0.92295 15.5318 0.887992 16.7464 1.42144 17.6573C1.95425 18.5672 3.03541 19.13 4.59998 19.13H17.4C18.9645 19.13 20.0457 18.5672 20.5785 17.6573C21.1123 16.7459 21.0765 15.5213 20.3229 14.1628L13.9229 2.64282ZM13.9229 2.64282L20.3228 14.1626L13.9229 2.64282ZM12.0223 16.1004L12.0492 16.0789L12.073 16.0539C12.335 15.7773 12.5 15.3964 12.5 15C12.5 14.6036 12.335 14.2227 12.073 13.9461L12.0492 13.9211L12.0223 13.8996L11.9473 13.8396L11.8723 13.7796L11.8554 13.766L11.8373 13.754C11.7552 13.6992 11.6667 13.6525 11.5721 13.6176C11.4843 13.5768 11.3908 13.5463 11.2863 13.529C11.0955 13.4856 10.8906 13.4882 10.7019 13.5296C10.6057 13.5471 10.5141 13.5775 10.4278 13.6176C10.3332 13.6525 10.2448 13.6992 10.1626 13.754L10.1446 13.766L10.1276 13.7796L10.0526 13.8396L9.97763 13.8996L9.95071 13.9211L9.927 13.9461C9.66499 14.2227 9.49998 14.6036 9.49998 15C9.49998 15.3964 9.66499 15.7773 9.927 16.0539L9.95071 16.0789L9.97763 16.1004L10.0526 16.1604L10.1276 16.2204L10.1446 16.234L10.1626 16.246C10.2448 16.3008 10.3332 16.3475 10.4278 16.3824C10.5188 16.4247 10.6157 16.4562 10.7178 16.4732L10.7178 16.4733L10.7293 16.475C10.7328 16.4755 10.7365 16.476 10.7404 16.4766C10.8019 16.4854 10.9033 16.5 11 16.5C11.1021 16.5 11.2048 16.4844 11.2671 16.474C11.3794 16.4574 11.479 16.4257 11.5721 16.3824C11.6667 16.3475 11.7552 16.3008 11.8373 16.246L11.8554 16.234L11.8723 16.2204L11.9473 16.1604L12.0223 16.1004ZM11 5.75C10.3138 5.75 9.74998 6.31386 9.74998 7V12C9.74998 12.6861 10.3138 13.25 11 13.25C11.6861 13.25 12.25 12.6861 12.25 12V7C12.25 6.31386 11.6861 5.75 11 5.75Z" fill="#F3BF05" stroke="#F3BF05"/>
</svg>
